<svg xmlns="http://www.w3.org/2000/svg" xmlns:xlink="http://www.w3.org/1999/xlink" width="500" zoomAndPan="magnify" viewBox="0 0 375 374.999991" height="500" preserveAspectRatio="xMidYMid meet" version="1.0"><defs><g/><clipPath id="778a2f5565"><path d="M 137 18.671875 L 238 18.671875 L 238 80.683594 L 137 80.683594 Z M 137 18.671875 " clip-rule="nonzero"/></clipPath><clipPath id="29967c046c"><path d="M 136.9375 294.316406 L 237.996094 294.316406 L 237.996094 356.328125 L 136.9375 356.328125 Z M 136.9375 294.316406 " clip-rule="nonzero"/></clipPath></defs><g fill="#00ff6e" fill-opacity="1"><g transform="translate(27.635707, 252.988012)"><g><path d="M 139.136719 -174.929688 L 127.050781 -118.753906 C 118.515625 -128.472656 105.003906 -133.921875 91.257812 -133.921875 C 45.746094 -133.921875 7.109375 -95.523438 7.109375 -50.960938 C 7.109375 -18.960938 30.578125 2.84375 67.792969 2.84375 C 110.457031 2.84375 146.960938 -26.074219 155.730469 -68.027344 C 155.730469 -68.503906 155.96875 -68.738281 155.96875 -69.214844 L 178.722656 -174.929688 Z M 74.664062 -30.8125 C 57.835938 -30.8125 47.40625 -41.007812 47.40625 -56.886719 C 47.40625 -80.355469 65.894531 -100.503906 89.597656 -100.503906 C 106.191406 -100.503906 116.855469 -90.546875 116.855469 -74.664062 C 116.855469 -52.148438 98.84375 -30.8125 74.664062 -30.8125 Z M 74.664062 -30.8125 "/></g></g></g><g fill="#ff0000" fill-opacity="1"><g transform="translate(178.842495, 252.988012)"><g><path d="M 30.101562 40.53125 L 40.769531 -10.429688 C 49.777344 -1.183594 63.289062 2.84375 77.035156 2.84375 C 122.546875 2.84375 161.183594 -35.554688 161.183594 -80.117188 C 161.183594 -112.117188 137.714844 -133.921875 100.738281 -133.921875 C 57.125 -133.921875 21.570312 -105.003906 12.5625 -63.050781 L -9.480469 40.53125 Z M 78.695312 -30.578125 C 62.101562 -30.578125 51.671875 -40.53125 51.671875 -56.414062 C 51.671875 -78.933594 69.6875 -100.265625 93.863281 -100.265625 C 110.695312 -100.265625 121.125 -90.074219 121.125 -74.191406 C 121.125 -50.726562 102.636719 -30.578125 78.695312 -30.578125 Z M 78.695312 -30.578125 "/></g></g></g><g clip-path="url(#778a2f5565)"><path fill="#00ff6e" d="M 187.519531 18.671875 L 212.761719 49.679688 L 238 80.683594 L 137.039062 80.683594 L 162.28125 49.679688 Z M 187.519531 18.671875 " fill-opacity="1" fill-rule="nonzero"/></g><g clip-path="url(#29967c046c)"><path fill="#ff0000" d="M 187.464844 356.328125 L 162.226562 325.320312 L 136.984375 294.316406 L 237.949219 294.316406 L 212.707031 325.320312 Z M 187.464844 356.328125 " fill-opacity="1" fill-rule="nonzero"/></g></svg>